<?xml version="1.0" standalone="no"?>
<!DOCTYPE svg PUBLIC "-//W3C//DTD SVG 20010904//EN"
 "http://www.w3.org/TR/2001/REC-SVG-20010904/DTD/svg10.dtd">
<svg version="1.0" xmlns="http://www.w3.org/2000/svg"
 width="800.000000pt" height="800.000000pt" viewBox="0 0 800.000000 800.000000"
 preserveAspectRatio="xMidYMid meet">
<metadata>
Created by potrace 1.11, written by Peter Selinger 2001-2013
</metadata>
<g transform="translate(0.000000,800.000000) scale(0.100000,-0.100000)"
fill="#000000" stroke="none">
<path d="M3810 7840 c-1318 -67 -2527 -850 -3115 -2020 -54 -107 -195 -420
-195 -432 0 -4 280 -9 623 -10 408 -2 621 -6 620 -13 -1 -5 -22 -66 -47 -135
-57 -164 -113 -418 -126 -577 0 -2 -287 -4 -637 -5 l-638 -3 -12 -65 c-41
-225 -48 -324 -48 -660 0 -366 9 -467 66 -751 303 -1512 1513 -2694 3036
-2968 222 -40 397 -54 663 -54 275 0 447 14 690 59 1325 243 2439 1200 2878
2474 206 598 258 1197 161 1833 l-21 137 -638 0 -638 0 -7 53 c-25 205 -72
407 -130 561 -19 51 -35 99 -35 105 0 8 173 11 624 11 l625 0 -41 93 c-123
282 -257 536 -381 722 -278 416 -612 748 -1037 1030 -666 442 -1441 655 -2240
615z m340 -1580 c563 -50 1057 -341 1371 -809 439 -653 408 -1517 -76 -2137
-272 -348 -644 -578 -1090 -674 -130 -28 -420 -38 -573 -20 -312 36 -634 166
-885 357 -82 62 -245 220 -317 308 -275 335 -426 789 -407 1225 31 682 426
1281 1037 1574 303 145 618 204 940 176z m2940 -2460 c0 -91 -29 -343 -56
-480 -237 -1212 -1203 -2185 -2414 -2430 -218 -44 -379 -60 -610 -60 -369 -1
-656 45 -990 157 -457 153 -839 391 -1191 742 -199 199 -269 284 -407 491
-202 302 -359 668 -436 1013 -43 192 -42 214 4 82 244 -697 705 -1281 1322
-1671 96 -61 454 -244 506 -259 l22 -6 0 450 c0 248 2 451 4 451 1 0 54 -24
117 -54 214 -102 472 -178 724 -213 137 -19 463 -21 600 -4 746 95 1389 504
1786 1136 116 185 239 467 289 663 l11 42 359 0 360 0 0 -50z"/>
<path d="M3771 5834 c-52 -8 -144 -31 -204 -51 -506 -163 -871 -587 -963
-1118 -21 -115 -14 -413 11 -525 38 -171 116 -352 216 -505 72 -109 261 -296
374 -371 228 -151 459 -228 730 -241 403 -20 785 129 1070 415 295 298 447
721 405 1127 -6 60 -16 131 -21 157 l-11 49 -31 -43 c-93 -129 -231 -224 -394
-270 -62 -18 -103 -22 -198 -22 -109 0 -129 4 -217 33 -237 81 -412 265 -479
507 -79 281 43 612 287 780 l56 39 -42 12 c-144 42 -412 54 -589 27z"/>
</g>
</svg>
